<?xml version="1.0" standalone="no"?>
<!DOCTYPE svg PUBLIC "-//W3C//DTD SVG 20010904//EN"
 "http://www.w3.org/TR/2001/REC-SVG-20010904/DTD/svg10.dtd">
<svg version="1.0" xmlns="http://www.w3.org/2000/svg"
 width="708.280176pt" height="542.000000pt" viewBox="0 0 708.280176 542.000000"
 preserveAspectRatio="xMidYMid meet">
<metadata>
Created by potrace 1.12, written by Peter Selinger 2001-2015
</metadata>
<g transform="translate(-238.162796,719.000000) scale(0.100000,-0.100000)"
fill="#000000" stroke="none">
<path d="M5123 7178 c-29 -14 -32 -24 -54 -163 -10 -66 -36 -238 -58 -383 -23
-144 -41 -275 -41 -291 0 -16 9 -36 21 -47 20 -18 39 -19 332 -17 269 1 312 4
326 18 14 13 17 55 21 276 4 216 8 261 20 269 24 15 455 13 467 -2 6 -7 13
-125 17 -266 4 -139 9 -259 12 -267 4 -8 16 -18 28 -21 34 -8 588 -10 619 -1
49 14 50 33 1 349 -24 161 -51 343 -59 403 -12 97 -17 113 -40 133 l-26 22
-782 -1 c-529 0 -789 -4 -804 -11z"/>
<path d="M5768 6513 c-3 -120 -4 -221 -1 -225 2 -5 75 -8 161 -8 l157 0 -3
225 -3 225 -153 0 -153 0 -5 -217z m272 170 c0 -5 3 -88 7 -185 l6 -178 -126
0 -127 0 0 185 0 185 120 0 c66 0 120 -3 120 -7z"/>
<path d="M4490 6141 c-16 -16 -31 -39 -34 -52 -7 -28 -128 -653 -158 -817 -29
-153 -38 -146 182 -150 155 -3 170 -2 188 16 17 17 19 44 25 402 4 211 9 385
11 388 5 4 444 -353 798 -650 103 -86 196 -159 207 -163 11 -3 33 0 48 8 36
19 243 215 243 231 0 16 -44 57 -236 223 -89 76 -270 234 -403 351 -134 118
-258 220 -277 228 -26 11 -93 14 -299 14 l-267 0 -28 -29z m571 -13 c29 -10
201 -157 787 -671 62 -54 112 -103 110 -108 -7 -20 -214 -199 -231 -199 -9 0
-151 111 -315 248 -513 426 -702 577 -725 577 l-22 0 -5 -402 c-3 -221 -9
-405 -13 -410 -12 -12 -314 -10 -325 2 -6 6 0 56 14 130 14 66 54 273 90 460
36 187 71 346 77 354 6 7 20 17 32 21 32 14 487 12 526 -2z"/>
<path d="M5320 6155 c-6 -8 -9 -23 -5 -34 7 -23 322 -297 356 -310 13 -4 32
-6 41 -2 33 12 348 303 348 322 0 10 -9 23 -19 29 -13 6 -146 10 -364 10 -289
0 -346 -2 -357 -15z m687 -23 c8 -5 -27 -44 -108 -117 -132 -121 -198 -175
-209 -175 -7 0 -163 129 -282 234 l-59 51 33 6 c49 9 611 10 625 1z"/>
<path d="M6332 6160 c-63 -9 -104 -35 -203 -127 -41 -37 -132 -119 -202 -182
-108 -96 -128 -119 -125 -140 4 -36 260 -262 296 -261 10 1 100 77 202 171
102 93 199 175 215 183 23 11 95 15 305 18 l275 3 7 -150 c6 -125 10 -152 25
-162 25 -19 302 -18 328 1 18 13 17 22 -35 312 -36 195 -61 305 -72 318 -16
21 -25 21 -490 22 -260 1 -497 -2 -526 -6z m978 -36 c0 -4 -37 -50 -83 -103
-45 -53 -93 -109 -106 -126 l-23 -30 -286 -5 c-248 -4 -291 -7 -319 -22 -17
-10 -113 -92 -213 -184 -99 -91 -185 -164 -190 -162 -24 8 -260 221 -253 228
261 238 437 389 464 397 36 12 1009 18 1009 7z"/>
<path d="M6555 5694 c-39 -26 -162 -139 -735 -674 -325 -303 -1206 -1123
-1428 -1329 -73 -67 -138 -133 -145 -144 -9 -16 -12 -105 -12 -334 0 -171 3
-314 7 -318 11 -12 32 7 164 146 153 162 822 866 943 994 265 278 657 692 871
920 135 142 338 357 451 476 114 119 210 226 214 238 14 44 -7 51 -155 51
-131 0 -139 -1 -175 -26z m290 -14 c3 -5 -124 -146 -282 -312 -158 -167 -403
-424 -543 -573 -703 -744 -1414 -1494 -1614 -1700 l-135 -140 0 270 c-1 149 2
280 5 293 4 12 155 161 338 330 182 170 531 495 776 723 895 832 1116 1037
1154 1070 32 28 50 35 100 40 102 10 194 10 201 -1z"/>
<path d="M4810 5008 c0 -370 3 -690 6 -710 4 -21 11 -38 17 -38 5 0 48 38 96
83 47 46 223 211 391 367 168 156 306 291 308 301 3 15 -62 71 -676 576 -62
51 -119 93 -127 93 -13 0 -15 -89 -15 -672z m420 302 c195 -161 355 -295 355
-299 0 -3 -94 -94 -210 -201 -115 -107 -281 -261 -367 -343 l-158 -149 0 652
c0 521 3 650 13 643 6 -6 172 -142 367 -303z"/>
<path d="M6829 5417 c-68 -72 -246 -260 -394 -417 -149 -157 -599 -634 -1000
-1060 -401 -426 -824 -874 -939 -995 -115 -121 -217 -233 -228 -250 -17 -28
-18 -59 -18 -422 0 -216 4 -393 9 -393 4 0 95 100 202 222 107 123 367 419
579 658 212 240 548 620 747 845 199 226 416 471 482 545 67 74 165 185 219
247 53 61 100 112 104 112 4 1 7 -313 8 -696 0 -607 3 -700 16 -713 21 -21
312 -22 337 -1 16 12 17 110 17 1227 0 670 -4 1215 -9 1218 -4 3 -64 -54 -132
-127z"/>
<path d="M7116 5351 c-16 -18 -18 -63 -19 -598 -1 -318 1 -590 6 -605 4 -16
13 -28 20 -27 6 0 31 39 54 87 131 269 382 456 718 535 76 18 122 21 300 22
l210 0 -3 45 c-3 44 -95 462 -112 506 -21 55 -7 54 -606 54 -531 0 -552 -1
-568 -19z m1135 -42 c10 -20 100 -397 114 -478 6 -39 5 -43 -11 -38 -48 14
-200 18 -305 8 -280 -26 -512 -125 -696 -295 -69 -64 -158 -177 -198 -251
l-25 -48 0 539 c0 296 3 549 6 561 l6 23 532 2 c292 2 539 1 549 -1 10 -2 22
-12 28 -22z"/>
<path d="M3513 4990 c-35 -14 -48 -52 -97 -280 -25 -118 -93 -435 -151 -705
-280 -1295 -308 -1436 -293 -1452 13 -12 22 -8 70 34 173 150 468 430 477 452
6 14 26 145 45 291 54 410 177 1305 181 1308 3 3 402 -542 450 -616 26 -40 30
-55 36 -164 4 -67 12 -125 18 -131 13 -13 61 29 285 246 l168 164 -3 410 c-4
387 -5 412 -23 432 -19 21 -22 21 -580 20 -309 0 -571 -4 -583 -9z m1129 -32
c14 -11 17 -63 23 -408 l7 -395 -199 -192 -200 -192 -7 102 c-5 74 -12 113
-27 142 -12 22 -105 155 -207 295 -102 140 -206 283 -231 318 -45 62 -75 78
-85 45 -10 -33 -122 -844 -191 -1378 -14 -110 -30 -214 -35 -231 -7 -21 -74
-89 -212 -215 -274 -250 -282 -257 -275 -233 4 10 29 127 56 259 27 132 82
389 121 570 39 182 127 590 195 907 68 318 127 583 130 589 4 6 17 14 29 19
11 5 262 9 557 9 414 1 539 -2 551 -11z"/>
<path d="M8012 4629 c-246 -32 -473 -151 -616 -325 -165 -200 -225 -479 -150
-700 26 -77 74 -166 87 -161 7 2 15 35 19 81 4 42 19 120 33 174 78 297 246
481 515 567 104 33 295 45 416 25 378 -60 695 -365 801 -767 34 -130 42 -336
19 -468 -44 -253 -165 -477 -359 -663 -175 -167 -386 -275 -621 -320 -81 -15
-173 -17 -846 -17 -823 0 -828 0 -1035 60 -328 94 -636 321 -826 609 -32 48
-66 108 -75 132 -9 24 -20 44 -24 44 -10 0 -160 -180 -173 -207 -13 -29 27
-101 140 -250 95 -127 225 -253 358 -348 182 -131 475 -257 696 -301 72 -14
187 -17 799 -21 915 -6 1052 3 1293 83 313 104 630 364 808 664 237 399 258
920 55 1363 -214 467 -662 762 -1151 756 -55 -1 -128 -5 -163 -10z m389 -44
c154 -27 301 -88 454 -191 79 -52 195 -155 195 -172 0 -5 -41 -48 -90 -96
l-91 -88 -47 44 c-336 313 -880 344 -1211 68 -138 -115 -247 -321 -284 -536
l-14 -79 -17 40 c-46 105 -58 255 -30 378 75 329 337 567 697 632 100 18 336
18 438 0z"/>
<path d="M3816 4319 c-3 -8 -16 -102 -30 -209 -35 -268 -94 -725 -101 -780 -3
-25 -8 -62 -11 -82 -4 -29 -2 -38 9 -38 33 0 386 321 411 375 20 41 23 302 4
356 -13 38 -78 139 -178 274 -77 104 -97 124 -104 104z m225 -344 c28 -49 29
-52 29 -208 0 -126 -3 -162 -16 -182 -12 -19 -227 -218 -319 -297 -19 -16 -16
13 42 450 34 257 62 480 63 496 0 26 11 14 86 -90 47 -65 99 -141 115 -169z"/>
<path d="M6334 4029 c-237 -270 -217 -237 -211 -349 6 -106 34 -203 89 -298
52 -91 246 -282 287 -282 8 0 11 153 11 555 0 305 -4 555 -8 555 -5 0 -80 -82
-168 -181z m139 -434 l-8 -440 -96 95 c-73 71 -105 112 -132 165 -67 135 -103
297 -76 348 8 14 82 102 164 197 l150 172 3 -49 c1 -26 -1 -246 -5 -488z"/>
<path d="M7990 4145 c-140 -31 -299 -141 -372 -254 -27 -43 -37 -81 -20 -81 4
0 42 18 85 39 110 55 200 76 327 74 184 -1 334 -67 460 -199 111 -118 175
-268 187 -444 23 -338 -222 -669 -568 -767 -59 -17 -120 -18 -799 -18 l-735 0
-98 27 c-209 57 -396 163 -533 302 -110 112 -208 259 -243 368 -7 21 -17 40
-22 44 -18 11 -179 -187 -179 -219 0 -30 59 -143 123 -236 29 -42 95 -119 147
-171 199 -199 426 -317 725 -377 67 -13 189 -16 749 -20 702 -5 839 0 977 37
223 58 423 187 564 363 244 305 290 727 118 1072 -110 219 -288 372 -518 445
-91 29 -280 36 -375 15z"/>
<path d="M7873 3776 c-135 -33 -286 -155 -332 -269 -13 -32 -21 -60 -18 -63 3
-3 20 2 37 11 18 9 73 33 123 52 75 29 105 36 162 36 181 -1 316 -122 317
-285 0 -34 -5 -81 -11 -104 -25 -91 -114 -172 -215 -194 -35 -8 -245 -10 -691
-8 -627 4 -641 4 -710 26 -130 41 -212 87 -285 160 -124 124 -202 270 -230
430 -8 40 -17 75 -21 78 -4 2 -59 -54 -122 -126 l-115 -131 20 -67 c90 -300
367 -560 693 -649 l100 -28 715 0 715 0 81 27 c193 66 343 220 400 414 26 87
24 239 -4 329 -79 260 -354 422 -609 361z m259 -47 c116 -39 221 -128 280
-236 79 -144 77 -351 -4 -507 -45 -85 -164 -202 -250 -244 -128 -63 -136 -63
-907 -59 -783 4 -746 0 -917 81 -125 59 -173 93 -277 195 -125 122 -200 238
-241 373 l-14 47 86 100 87 100 21 -77 c41 -151 140 -313 253 -415 64 -57 187
-119 296 -149 77 -21 100 -22 673 -26 625 -3 730 1 802 38 63 32 117 86 147
148 24 50 28 69 28 147 0 73 -5 100 -24 142 -28 64 -94 126 -169 161 -49 23
-70 27 -152 27 -93 -1 -124 -8 -254 -61 -16 -6 -13 1 12 37 58 85 150 151 257
185 65 21 196 17 267 -7z"/>
<path d="M7107 3593 c-4 -3 -7 -116 -7 -249 0 -209 2 -245 16 -259 13 -13 36
-15 131 -13 151 4 153 7 80 118 -63 97 -108 186 -162 318 -37 89 -44 100 -58
85z m188 -419 l43 -62 -52 -6 c-83 -10 -124 -7 -140 10 -13 13 -16 45 -16 191
l0 176 61 -124 c33 -68 80 -151 104 -185z"/>
<path d="M7752 3404 c-110 -29 -203 -113 -248 -222 -48 -116 -45 -117 208
-108 182 6 205 8 240 29 49 27 78 80 78 142 0 80 -50 141 -135 164 -51 14 -77
13 -143 -5z m187 -51 c62 -46 75 -130 29 -188 -38 -48 -71 -55 -268 -55 l-181
0 6 23 c28 94 116 190 208 226 65 27 165 23 206 -6z"/>
<path d="M4038 3353 c-60 -53 -661 -615 -1388 -1297 -146 -137 -266 -257 -268
-267 -3 -18 25 -19 852 -19 835 0 856 0 866 19 7 13 10 284 10 810 0 884 6
823 -72 754z m38 -773 c-1 -518 -4 -762 -12 -770 -7 -7 -261 -9 -819 -8 l-808
3 304 285 c167 157 454 427 639 600 321 303 693 650 695 650 1 0 1 -342 1
-760z"/>
<path d="M4710 2186 c-184 -211 -336 -391 -338 -400 -3 -15 60 -16 752 -16
655 0 756 2 756 15 0 8 -33 33 -72 56 -312 180 -579 431 -718 673 -17 31 -35
56 -38 56 -4 -1 -158 -173 -342 -384z m420 203 c73 -105 227 -270 327 -352 38
-30 127 -94 198 -142 72 -48 131 -88 132 -89 1 0 -305 -3 -680 -5 l-681 -4 29
36 c17 20 156 180 310 356 216 247 282 317 290 307 6 -8 39 -56 75 -107z"/>
</g>
</svg>
